# This file uses centimeters as units for non-parametric coordinates.

mtllib rock1.mtl
g default
v -0.201370 -0.000805 0.200154
v 0.199112 0.001228 0.199112
v -0.134407 0.389495 0.136135
v 0.144340 0.424757 0.138067
v -0.135981 0.410768 -0.165708
v 0.140362 0.387052 -0.143825
v -0.206084 0.003494 -0.206084
v 0.212965 0.005110 -0.212047
v 0.000000 0.001228 0.199112
v -0.001712 0.462933 0.171595
v -0.001034 0.402824 -0.151926
v 0.004507 -0.024515 -0.233156
v -0.175694 0.239622 0.168429
v 0.235141 0.250591 0.224761
v -0.159508 0.420440 0.000969
v 0.229962 0.459327 0.010341
v -0.151419 0.232861 -0.151419
v 0.200303 0.235387 -0.205435
v -0.199112 0.001228 0.000000
v 0.227016 -0.006231 -0.000025
v 0.006311 0.244802 0.252791
v -0.012203 0.536746 0.015033
v 0.000000 0.259942 -0.281755
v 0.367690 0.276205 -0.010893
v -0.267392 0.239186 0.003643
v -0.101532 -0.028716 0.224131
v 0.099556 0.001228 0.199112
v -0.107465 0.446078 0.184914
v 0.088814 0.451280 0.154191
v -0.076025 0.411164 -0.160277
v 0.091051 0.425624 -0.196655
v -0.099556 0.001228 -0.199112
v 0.129673 -0.013669 -0.272747
v -0.294594 0.134846 0.247877
v -0.139611 0.320979 0.140446
v 0.235498 0.118299 0.229860
v 0.168673 0.334635 0.168673
v -0.142679 0.399056 0.075484
v -0.160785 0.465598 -0.095126
v 0.139338 0.391251 0.070346
v 0.147329 0.394746 -0.073216
v -0.158191 0.332783 -0.224614
v -0.259639 0.116575 -0.209186
v 0.195167 0.359119 -0.194505
v 0.190034 0.122974 -0.194312
v -0.199112 0.001228 -0.099556
v -0.199112 0.001228 0.099556
v 0.199112 0.001228 -0.099556
v 0.202798 -0.000812 0.100230
v 0.027917 0.114246 0.292748
v 0.123890 0.240130 0.326201
v -0.023922 0.394734 0.312528
v -0.108786 0.267303 0.260520
v -0.000447 0.450248 0.086984
v 0.133873 0.537052 0.026009
v -0.013805 0.514877 -0.119072
v -0.082384 0.444232 0.000000
v -0.016195 0.359787 -0.227499
v 0.135812 0.270702 -0.269061
v 0.000000 0.125530 -0.297238
v -0.132001 0.265025 -0.270366
v 0.357081 0.101239 -0.003778
v 0.297875 0.268507 -0.158687
v 0.242959 0.354276 -0.000023
v 0.297543 0.258562 0.112731
v -0.203289 0.122969 0.000000
v -0.201976 0.238043 0.087417
v -0.311011 0.391855 0.016935
v -0.311090 0.211954 -0.157965
v 0.091271 0.122969 0.196373
v 0.096769 0.420467 0.296352
v -0.113344 0.336032 0.241485
v -0.116090 0.122059 0.386621
v 0.076235 0.430705 0.076235
v 0.109335 0.511435 -0.118855
v -0.078494 0.438049 -0.079043
v -0.076938 0.432022 0.076288
v 0.103180 0.404784 -0.291247
v 0.121346 0.124182 -0.259652
v -0.162767 0.120825 -0.318174
v -0.073462 0.324181 -0.173053
v 0.291731 0.105224 -0.149805
v 0.221285 0.363991 -0.109483
v 0.248223 0.364532 0.108196
v 0.278091 0.114708 0.106709
v -0.258646 0.126030 0.088098
v -0.219826 0.352834 0.121134
v -0.298197 0.397007 -0.171180
v -0.205147 0.120342 -0.091578
vt 0.646295 0.051980
vt 0.746917 0.082763
vt 0.679746 0.152850
vt 0.617144 0.113909
vt 0.643092 0.205755
vt 0.592117 0.186395
vt 0.545003 0.187042
vt 0.557100 0.124406
vt 0.575236 0.030404
vt 0.613006 0.241848
vt 0.591512 0.265121
vt 0.575129 0.266664
vt 0.570290 0.235529
vt 0.554590 0.268835
vt 0.546370 0.233393
vt 0.528729 0.263750
vt 0.503359 0.274134
vt 0.479024 0.255844
vt 0.512874 0.229345
vt 0.446041 0.226357
vt 0.496661 0.202036
vt 0.393638 0.151655
vt 0.325422 0.030961
vt 0.457905 0.006891
vt 0.481229 0.127763
vt 0.604494 0.279585
vt 0.580941 0.287027
vt 0.619217 0.306375
vt 0.562434 0.318913
vt 0.556913 0.291958
vt 0.626994 0.331714
vt 0.628189 0.350775
vt 0.595521 0.341224
vt 0.565031 0.372279
vt 0.563737 0.345763
vt 0.531878 0.378426
vt 0.504356 0.377837
vt 0.503288 0.352427
vt 0.532589 0.347451
vt 0.503759 0.323072
vt 0.531761 0.322100
vt 0.503207 0.296918
vt 0.532776 0.296444
vt 0.654442 0.361434
vt 0.712627 0.382038
vt 0.582533 0.441137
vt 0.568186 0.402201
vt 0.788906 0.405021
vt 0.963334 0.416423
vt 0.724649 0.471066
vt 0.639561 0.684051
vt 0.590971 0.518718
vt 0.402251 0.652577
vt 0.274579 0.596648
vt 0.371692 0.470959
vt 0.447690 0.508041
vt 0.450228 0.429891
vt 0.496617 0.442899
vt 0.487489 0.409345
vt 0.530293 0.405951
vt 0.926656 0.302345
vt 0.809997 0.332591
vt 0.711585 0.336941
vt 0.701165 0.279866
vt 0.773473 0.247847
vt 0.878668 0.176615
vt 0.655955 0.333232
vt 0.647160 0.295971
vt 0.638461 0.262015
vt 0.677504 0.238165
vt 0.797179 0.102263
vt 0.738191 0.187862
vt 0.217767 0.170058
vt 0.341393 0.236379
vt 0.421189 0.265561
vt 0.396325 0.321560
vt 0.303508 0.321168
vt 0.164646 0.306319
vt 0.468290 0.287401
vt 0.455013 0.328323
vt 0.463818 0.374147
vt 0.406522 0.402233
vt 0.215251 0.485031
vt 0.314769 0.401166
vt 0.620904 0.383513
vt 0.661226 0.406605
vt 0.606265 0.363340
vt 0.848015 0.578856
vt 0.592563 0.312897
vn 0.188742 -0.239968 0.952256
vn 0.491969 -0.367631 0.789185
vn 0.577271 -0.328462 0.747577
vn 0.186305 -0.325015 0.927176
vn 0.724680 0.130474 0.676620
vn 0.268953 -0.147748 0.951753
vn 0.004924 -0.052652 0.998601
vn 0.382431 -0.240375 0.892170
vn 0.440548 -0.510717 0.738299
vn 0.686452 0.597229 0.414850
vn 0.616337 0.784782 0.065167
vn 0.369375 0.929275 0.003266
vn 0.437615 0.600132 0.669578
vn -0.134750 0.980420 0.143594
vn -0.285987 0.402655 0.869529
vn -0.649811 0.742390 0.163101
vn -0.756815 0.561618 0.334389
vn -0.777330 0.288663 0.558956
vn -0.735151 0.270546 0.621577
vn -0.786662 0.449065 0.423678
vn -0.408091 0.397755 0.821737
vn -0.937033 0.062794 0.343548
vn -0.731155 -0.620748 0.282993
vn -0.045011 -0.708020 0.704757
vn -0.091288 -0.042288 0.994926
vn 0.539639 0.745347 0.391469
vn 0.305834 0.868385 0.390349
vn 0.756321 0.641664 0.127461
vn 0.417787 0.820328 0.390532
vn -0.399688 0.853266 0.334943
vn -0.173770 0.939793 0.294267
vn 0.693927 0.597201 -0.402264
vn 0.637463 0.747588 -0.186421
vn 0.261381 0.819785 -0.509541
vn 0.446217 0.680069 -0.581719
vn -0.376934 0.626986 -0.681769
vn -0.404974 0.750161 -0.522738
vn -0.058494 0.637635 -0.768114
vn 0.197350 0.673700 -0.712166
vn -0.040467 0.975092 -0.218080
vn -0.295440 0.904654 -0.307109
vn -0.223290 0.938836 0.262161
vn -0.466281 0.851767 0.238904
vn -0.423561 0.838304 0.343282
vn -0.476110 0.870009 0.128075
vn 0.626411 0.644738 -0.438090
vn 0.224175 0.664023 -0.713315
vn 0.628540 0.071762 -0.774460
vn 0.380704 0.015351 -0.924569
vn -0.087114 0.272369 -0.958241
vn -0.365414 0.588341 -0.721337
vn 0.652865 -0.096024 -0.751363
vn 0.745176 -0.082447 -0.661752
vn 0.331728 -0.003400 -0.943369
vn 0.392902 -0.031067 -0.919055
vn -0.044387 -0.383942 -0.922290
vn 0.036052 -0.136908 -0.989927
vn -0.227049 -0.578068 -0.783764
vn -0.808502 -0.507330 -0.298228
vn -0.880617 -0.092042 -0.464804
vn -0.385846 -0.123525 -0.914256
vn -0.632664 0.151597 -0.759443
vn -0.456051 0.486359 -0.745300
vn -0.122320 0.301666 -0.945535
vn -0.247892 0.510752 -0.823214
vn 0.739205 -0.544659 -0.396134
vn 0.752881 -0.330256 -0.569299
vn 0.720251 0.292349 -0.629103
vn 0.920386 0.389032 0.039289
vn 0.895422 -0.439921 0.068473
vn 0.691302 -0.719983 0.061033
vn 0.571827 0.711818 -0.407834
vn 0.688901 0.724844 0.004161
vn 0.614108 0.672162 0.413606
vn 0.828420 0.291067 0.478539
vn 0.784590 -0.545786 0.294170
vn 0.861125 -0.317910 0.396732
vn -0.906184 -0.375734 -0.194046
vn -0.993308 -0.044832 -0.106440
vn -0.921837 0.098694 0.374802
vn -0.933563 -0.258733 0.248027
vn -0.971310 -0.237806 0.002383
vn -0.979827 -0.150087 -0.131956
vn -0.590222 0.365495 0.719758
vn -0.767596 0.488408 0.415035
vn -0.636191 0.511785 -0.577353
vn -0.853153 -0.308383 -0.420748
vn -0.979912 -0.145930 0.135928
vn -0.966580 -0.249440 -0.059183
s 1
g pCube1
usemtl lambert2SG
f 27/1/1 2/2/2 36/3/3 70/4/4
f 36/3/3 14/5/5 51/6/6 70/4/4
f 51/6/6 21/7/7 50/8/8 70/4/4
f 50/8/8 9/9/9 27/1/1 70/4/4
f 37/10/10 4/11/11 29/12/12 71/13/13
f 29/12/12 10/14/14 52/15/15 71/13/13
f 52/15/15 21/7/7 51/6/6 71/13/13
f 51/6/6 14/5/5 37/10/10 71/13/13
f 28/16/16 3/17/17 35/18/18 72/19/19
f 35/18/18 13/20/20 53/21/21 72/19/19
f 53/21/21 21/7/7 52/15/15 72/19/19
f 52/15/15 10/14/14 28/16/16 72/19/19
f 34/22/22 1/23/23 26/24/24 73/25/25
f 26/24/24 9/9/9 50/8/8 73/25/25
f 50/8/8 21/7/7 53/21/21 73/25/25
f 53/21/21 13/20/20 34/22/22 73/25/25
f 29/12/12 4/11/11 40/26/26 74/27/27
f 40/26/26 16/28/28 55/89/29 74/27/27
f 55/89/29 22/29/30 54/30/31 74/27/27
f 54/30/31 10/14/14 29/12/12 74/27/27
f 41/31/32 6/32/33 31/87/34 75/33/35
f 31/87/34 11/34/36 56/35/37 75/33/35
f 56/35/37 22/29/30 55/89/29 75/33/35
f 55/89/29 16/28/28 41/31/32 75/33/35
f 30/36/38 5/37/39 39/38/40 76/39/41
f 39/38/40 15/40/42 57/41/43 76/39/41
f 57/41/43 22/29/30 56/35/37 76/39/41
f 56/35/37 11/34/36 30/36/38 76/39/41
f 38/42/44 3/17/17 28/16/16 77/43/45
f 28/16/16 10/14/14 54/30/31 77/43/45
f 54/30/31 22/29/30 57/41/43 77/43/45
f 57/41/43 15/40/42 38/42/44 77/43/45
f 31/87/34 6/32/33 44/44/46 78/85/47
f 44/44/46 18/45/48 59/86/49 78/85/47
f 59/86/49 23/46/50 58/47/51 78/85/47
f 58/47/51 11/34/36 31/87/34 78/85/47
f 45/48/52 8/49/53 33/88/54 79/50/55
f 33/88/54 12/51/56 60/52/57 79/50/55
f 60/52/57 23/46/50 59/86/49 79/50/55
f 59/86/49 18/45/48 45/48/52 79/50/55
f 32/53/58 7/54/59 43/55/60 80/56/61
f 43/55/60 17/57/62 61/58/63 80/56/61
f 61/58/63 23/46/50 60/52/57 80/56/61
f 60/52/57 12/51/56 32/53/58 80/56/61
f 42/59/64 5/37/39 30/36/38 81/60/65
f 30/36/38 11/34/36 58/47/51 81/60/65
f 58/47/51 23/46/50 61/58/63 81/60/65
f 61/58/63 17/57/62 42/59/64 81/60/65
f 48/61/66 8/49/53 45/48/52 82/62/67
f 45/48/52 18/45/48 63/63/68 82/62/67
f 63/63/68 24/64/69 62/65/70 82/62/67
f 62/65/70 20/66/71 48/61/66 82/62/67
f 44/44/46 6/32/33 41/31/32 83/67/72
f 41/31/32 16/28/28 64/68/73 83/67/72
f 64/68/73 24/64/69 63/63/68 83/67/72
f 63/63/68 18/45/48 44/44/46 83/67/72
f 40/26/26 4/11/11 37/10/10 84/69/74
f 37/10/10 14/5/5 65/70/75 84/69/74
f 65/70/75 24/64/69 64/68/73 84/69/74
f 64/68/73 16/28/28 40/26/26 84/69/74
f 36/3/3 2/2/2 49/71/76 85/72/77
f 49/71/76 20/66/71 62/65/70 85/72/77
f 62/65/70 24/64/69 65/70/75 85/72/77
f 65/70/75 14/5/5 36/3/3 85/72/77
f 47/73/78 1/23/23 34/22/22 86/74/79
f 34/22/22 13/20/20 67/75/80 86/74/79
f 67/75/80 25/76/81 66/77/82 86/74/79
f 66/77/82 19/78/83 47/73/78 86/74/79
f 35/18/18 3/17/17 38/42/44 87/79/84
f 38/42/44 15/40/42 68/80/85 87/79/84
f 68/80/85 25/76/81 67/75/80 87/79/84
f 67/75/80 13/20/20 35/18/18 87/79/84
f 39/38/40 5/37/39 42/59/64 88/81/86
f 42/59/64 17/57/62 69/82/87 88/81/86
f 69/82/87 25/76/81 68/80/85 88/81/86
f 68/80/85 15/40/42 39/38/40 88/81/86
f 43/55/60 7/54/59 46/83/88 89/84/89
f 46/83/88 19/78/83 66/77/82 89/84/89
f 66/77/82 25/76/81 69/82/87 89/84/89
f 69/82/87 17/57/62 43/55/60 89/84/89
